<svg xmlns="http://www.w3.org/2000/svg" width="60" height="60" viewBox="0 0 60 60" fill="none"><g clip-path="url(#clip0)"><path d="M58.4254 46.2871L46.2812 38.1883C44.7401 37.1688 42.6742 37.5043 41.5349 38.9592L37.9974 43.5075C37.5428 44.1069 36.7164 44.2808 36.0587 43.9155L35.3858 43.5445C33.1551 42.3286 30.3796 40.8149 24.7874 35.2207C19.1952 29.6266 17.6785 26.8489 16.4626 24.6223L16.0936 23.9494C15.7232 23.2919 15.8938 22.462 16.4935 22.0037L21.0388 18.4673C22.4931 17.3278 22.829 15.2626 21.8107 13.721L13.7119 1.57675C12.6683 0.00690081 10.5744 -0.464357 8.95878 0.506866L3.88051 3.55739C2.28489 4.49545 1.11425 6.01468 0.614046 7.79672C-1.21463 14.4597 0.161066 25.959 17.1006 42.9005C30.5756 56.3745 40.6071 59.998 47.5021 59.998C49.089 60.0048 50.6696 59.7983 52.2015 59.3841C53.9839 58.8845 55.5033 57.7138 56.4408 56.1177L59.4944 51.0424C60.467 49.4264 59.996 47.3313 58.4254 46.2871ZM57.7715 50.0165L54.725 55.0948C54.0518 56.2468 52.959 57.0938 51.6754 57.4585C45.5243 59.1472 34.7779 57.7484 18.5153 41.4858C2.25267 25.2232 0.85401 14.4778 2.54278 8.32574C2.90789 7.04062 3.75596 5.94637 4.90939 5.27217L9.98765 2.22563C10.6887 1.80382 11.5975 2.00828 12.0503 2.68951L16.4497 9.29451L20.1422 14.8327C20.5844 15.5014 20.4391 16.3976 19.8083 16.8924L15.2619 20.4288C13.8784 21.4868 13.4833 23.401 14.3351 24.9202L14.6961 25.5761C15.974 27.9198 17.5627 30.8353 23.3629 36.6345C29.163 42.4336 32.0776 44.0224 34.4202 45.3002L35.0771 45.6621C36.5962 46.5138 38.5105 46.1188 39.5684 44.7353L43.1049 40.189C43.5998 39.5585 44.4957 39.4133 45.1646 39.855L57.3077 47.9538C57.9894 48.4064 58.1939 49.3156 57.7715 50.0165Z" fill="#0439AB"></path><path d="M33.9983 10.006C43.3814 10.0164 50.9852 17.6204 50.9958 27.0035C50.9958 27.5557 51.4434 28.0033 51.9956 28.0033C52.5478 28.0033 52.9954 27.5557 52.9954 27.0035C52.9838 16.5164 44.4853 8.01783 33.9983 8.00635C33.446 8.00635 32.9984 8.45394 32.9984 9.00616C32.9984 9.55838 33.446 10.006 33.9983 10.006Z" fill="#FFC000"></path><path d="M33.9983 16.005C40.0695 16.0121 44.9895 20.9321 44.9967 27.0034C44.9967 27.5556 45.4444 28.0032 45.9965 28.0032C46.5487 28.0032 46.9963 27.5556 46.9963 27.0034C46.988 19.8281 41.1734 14.0136 33.9983 14.0054C33.446 14.0054 32.9984 14.453 32.9984 15.0052C32.9984 15.5574 33.446 16.005 33.9983 16.005Z" fill="#FFC000"></path><path d="M33.9983 22.0035C36.7578 22.0068 38.9942 24.2431 38.9976 27.0028C38.9976 27.5551 39.4453 28.0026 39.9974 28.0026C40.5495 28.0026 40.9972 27.5551 40.9972 27.0028C40.9927 23.1393 37.8618 20.0082 33.9983 20.0039C33.446 20.0039 32.9984 20.4515 32.9984 21.0037C32.9984 21.5559 33.446 22.0035 33.9983 22.0035Z" fill="#FFC000"></path></g><defs><clipPath><rect width="60" height="60" fill="white"></rect></clipPath></defs></svg>