<svg xmlns="http://www.w3.org/2000/svg" width="36" height="48" viewBox="0 0 36 48" fill="none"><path d="M16.125 47.0625C14.625 44.875 12.9062 42.4062 10.9688 39.6562C9.09375 36.9062 7.75 34.9688 6.9375 33.8438C6.125 32.7188 5.1875 31.3438 4.125 29.7188C3.0625 28.0312 2.34375 26.8438 1.96875 26.1562C1.65625 25.4688 1.28125 24.5938 0.84375 23.5312C0.46875 22.4688 0.21875 21.5625 0.09375 20.8125C0.03125 20 0 19.0625 0 18C0 13 1.75 8.75 5.25 5.25C8.75 1.75 13 0 18 0C23 0 27.25 1.75 30.75 5.25C34.25 8.75 36 13 36 18C36 19.0625 35.9375 20 35.8125 20.8125C35.75 21.5625 35.5 22.4688 35.0625 23.5312C34.6875 24.5938 34.3125 25.4688 33.9375 26.1562C33.625 26.8438 32.9375 28.0312 31.875 29.7188C30.8125 31.3438 29.875 32.7188 29.0625 33.8438C28.25 34.9688 26.875 36.9062 24.9375 39.6562C23.0625 42.4062 21.375 44.875 19.875 47.0625C19.4375 47.6875 18.8125 48 18 48C17.1875 48 16.5625 47.6875 16.125 47.0625ZM12.6562 23.3438C14.1562 24.7812 15.9375 25.5 18 25.5C20.0625 25.5 21.8125 24.7812 23.25 23.3438C24.75 21.8438 25.5 20.0625 25.5 18C25.5 15.9375 24.75 14.1875 23.25 12.75C21.8125 11.25 20.0625 10.5 18 10.5C15.9375 10.5 14.1562 11.25 12.6562 12.75C11.2188 14.1875 10.5 15.9375 10.5 18C10.5 20.0625 11.2188 21.8438 12.6562 23.3438Z" fill="#FFC000"></path></svg>