<svg xmlns="http://www.w3.org/2000/svg" width="60" height="60" viewBox="0 0 60 60" fill="none"><path fill-rule="evenodd" clip-rule="evenodd" d="M58.2973 47.1992L56.8331 51.0069C56.1805 50.7234 55.777 50.6416 54.971 50.6236L56.0566 47.8003H48.6903L44.7246 58.1128H52.091L52.1794 57.8819C52.7128 58.3614 53.1046 58.5478 53.8207 58.8374L53.6094 59.3866C53.5414 59.5635 53.4213 59.7157 53.2651 59.823C53.1088 59.9303 52.9237 59.9877 52.7342 59.9877H18.0467C17.798 59.9877 17.5596 59.8889 17.3838 59.7131C17.2079 59.5373 17.1092 59.2988 17.1092 59.0502V54.6814L7.92823 42.747C7.80172 42.5824 7.73344 42.3804 7.7341 42.1728C7.73476 41.9652 7.80433 41.7636 7.93189 41.5998L8.97533 40.2583L5.90033 30.2633C5.88645 30.2163 5.87577 30.1684 5.86836 30.12L5.84961 29.986L7.77748 29.9878L10.3813 38.4509L14.1799 33.5666L11.0855 24.8005L11.6057 20.6388L16.022 33.1516L19.922 35.9877V33.7378C19.9249 32.8087 20.1577 31.8948 20.5998 31.0776C21.0419 30.2605 21.6794 29.5655 22.4555 29.0548C22.36 28.7866 22.2718 28.5163 22.1968 28.2412L14.0701 26.2095C13.8674 26.1587 13.6874 26.0416 13.5589 25.8769C13.4303 25.7121 13.3605 25.5091 13.3605 25.3002C13.3605 25.0912 13.4303 24.8882 13.5589 24.7234C13.6874 24.5587 13.8674 24.4416 14.0701 24.3908L22.2007 22.3581C22.4511 21.4326 22.8195 20.5433 23.297 19.7119L18.9845 12.5247C18.8768 12.3453 18.832 12.1351 18.8575 11.9275C18.883 11.7198 18.9772 11.5266 19.1252 11.3787C19.2731 11.2308 19.4663 11.1366 19.674 11.1111C19.8817 11.0857 20.0919 11.1304 20.2712 11.2382L27.4587 15.5503C28.2901 15.0727 29.1795 14.7043 30.105 14.4539L32.1382 6.32272C32.1889 6.11995 32.3059 5.93994 32.4706 5.8113C32.6353 5.68267 32.8383 5.61279 33.0473 5.61279C33.2563 5.61279 33.4593 5.68267 33.6241 5.8113C33.7888 5.93994 33.9058 6.11995 33.9564 6.32272L35.9894 14.4539C36.9149 14.7043 37.8043 15.0727 38.6357 15.5503L45.8232 11.2382C46.0025 11.1306 46.2126 11.086 46.4202 11.1115C46.6278 11.137 46.8208 11.2312 46.9687 11.3791C47.1166 11.5269 47.2108 11.72 47.2363 11.9276C47.2618 12.1351 47.2172 12.3453 47.1095 12.5246L42.797 19.7118C43.2747 20.5431 43.6434 21.4325 43.8939 22.358L52.0244 24.3911C52.2271 24.4419 52.407 24.5589 52.5356 24.7237C52.6642 24.8885 52.734 25.0915 52.734 25.3004C52.734 25.5094 52.6642 25.7124 52.5356 25.8772C52.407 26.0419 52.2271 26.159 52.0244 26.2098L43.8977 28.2415C43.823 28.5164 43.7346 28.7864 43.6392 29.0546C44.4153 29.5653 45.0528 30.2603 45.4949 31.0775C45.9369 31.8947 46.1696 32.8087 46.1723 33.7378V42.1753C46.1673 42.2594 46.1505 42.3425 46.1225 42.422C47.1986 43.3687 48.015 44.5746 48.4944 45.9253H57.422C57.5742 45.9253 57.724 45.9624 57.8586 46.0333C57.9932 46.1042 58.1085 46.2067 58.1947 46.3321C58.2808 46.4575 58.3352 46.6019 58.353 46.753C58.3709 46.904 58.3518 47.0572 58.2973 47.1992ZM46.9109 47.2048L43.8033 55.2845L42.4138 44.8637C42.3799 44.6181 42.2501 44.3959 42.0528 44.2458C41.8555 44.0956 41.6068 44.0298 41.3611 44.0626C41.1153 44.0954 40.8926 44.2242 40.7416 44.4208C40.5905 44.6175 40.5236 44.8659 40.5553 45.1118L42.2887 58.1128H32.6439L38.5841 45.384C38.6362 45.2725 38.6657 45.1517 38.6711 45.0287C38.6765 44.9057 38.6577 44.7829 38.6156 44.6672C38.5735 44.5515 38.5091 44.4452 38.4259 44.3544C38.3428 44.2636 38.2425 44.1901 38.131 44.138C38.0194 44.086 37.8987 44.0564 37.7757 44.051C37.6527 44.0456 37.5298 44.0645 37.4141 44.1066C37.2984 44.1486 37.1921 44.2131 37.1014 44.2962C37.0106 44.3794 36.937 44.4796 36.885 44.5912L30.575 58.1128H20.4257L32.7725 46.5881L37.1855 42.1753H40.547C42.0178 42.1798 43.4445 42.678 44.5984 43.5899C45.7523 44.5019 46.5666 45.7748 46.9109 47.2048ZM23.672 25.3003C23.6682 23.8899 23.9827 22.4969 24.592 21.2249C25.2013 19.953 26.0897 18.8349 27.1911 17.9539C28.2924 17.073 29.5784 16.4518 30.9531 16.1368C32.3278 15.8218 33.7559 15.8211 35.131 16.1346C36.5061 16.4481 37.7927 17.0678 38.895 17.9475C39.9973 18.8273 40.887 19.9444 41.4976 21.2157C42.1083 22.487 42.4243 23.8797 42.422 25.2901C42.4197 26.7004 42.0993 28.0921 41.4845 29.3614V27.1753C41.4845 24.9375 40.5956 22.7914 39.0133 21.209C37.4309 19.6267 35.2848 18.7378 33.047 18.7378C30.8093 18.7378 28.6632 19.6267 27.0808 21.209C25.4985 22.7914 24.6095 24.9375 24.6095 27.1753V29.3614C23.9939 28.096 23.6733 26.7075 23.672 25.3003ZM26.4845 31.8628V28.0463C27.8647 27.8921 29.1855 27.4001 30.3301 26.6138C31.4748 25.8275 32.4079 24.7712 33.047 23.5383C33.6861 24.7712 34.6193 25.8275 35.764 26.6138C36.9086 27.4001 38.2294 27.8921 39.6095 28.0463V31.8628C39.6095 33.6032 38.9181 35.2724 37.6874 36.5031C36.4567 37.7338 34.7875 38.4253 33.047 38.4253C31.3066 38.4253 29.6374 37.7338 28.4067 36.5031C27.176 35.2724 26.4845 33.6032 26.4845 31.8628ZM26.573 26.1493C26.7914 24.7831 27.4357 23.5207 28.4141 22.5423C29.3925 21.564 30.6549 20.9196 32.0211 20.7012C31.8027 22.0674 31.1583 23.3298 30.18 24.3082C29.2016 25.2866 27.9392 25.9309 26.573 26.1493ZM34.073 20.7012C35.4392 20.9196 36.7016 21.564 37.68 22.5423C38.6583 23.5207 39.3027 24.7831 39.5211 26.1493C38.1549 25.9309 36.8925 25.2866 35.9141 24.3082C34.9357 23.3298 34.2914 22.0674 34.073 20.7012ZM37.7345 38.8736C38.4422 38.3978 39.0743 37.8182 39.6095 37.1544V37.4878C39.6099 38.4761 39.8725 39.4466 40.3706 40.3003H37.7345V38.8736ZM26.4845 37.1544C27.0198 37.8182 27.6519 38.3978 28.3595 38.8736V40.3003H25.8519L25.7533 40.2285C26.2333 39.3949 26.4855 38.4497 26.4845 37.4878V37.1544ZM35.8595 39.808V40.8495L32.2957 44.4133L30.2345 40.9778V39.808C32.0521 40.4643 34.042 40.4643 35.8595 39.808ZM44.297 33.7378V41.1192C43.4926 40.9103 42.7801 40.4405 42.2712 39.7834C41.7622 39.1262 41.4856 38.3189 41.4845 37.4878V32.7096C42.0033 32.1205 42.4593 31.479 42.8452 30.7955C43.2949 31.1433 43.6594 31.5891 43.911 32.0989C44.1626 32.6088 44.2946 33.1692 44.297 33.7378ZM47.9317 25.3003L44.2533 26.2198C44.2782 25.915 44.297 25.6089 44.297 25.3003C44.297 24.9896 44.2752 24.6843 44.2502 24.3799L47.9317 25.3003ZM43.5724 14.7749L41.6187 18.0315C41.2206 17.5625 40.7849 17.1267 40.316 16.7284L43.5724 14.7749ZM33.047 10.4147L33.968 14.0968C33.6635 14.0721 33.3579 14.05 33.047 14.05C32.7362 14.05 32.4306 14.0718 32.126 14.0968L33.047 10.4147ZM22.5213 14.7747L25.778 16.7285C25.309 17.1268 24.8732 17.5626 24.4749 18.0316L22.5213 14.7747ZM18.1624 25.3003L21.8439 24.3799C21.8192 24.6843 21.797 24.9893 21.797 25.3003C21.797 25.6089 21.8158 25.915 21.8408 26.2198L18.1624 25.3003ZM21.797 33.7378C21.7998 33.1694 21.932 32.6091 22.1836 32.0995C22.4352 31.5898 22.7997 31.1442 23.2493 30.7965C23.6351 31.4797 24.091 32.1208 24.6095 32.7096V37.4878C24.6055 38.0515 24.4696 38.6064 24.2128 39.1082L21.797 37.3514V33.7378ZM9.85761 42.1784L15.4176 35.03L24.9959 41.9956C25.156 42.1122 25.349 42.175 25.547 42.1751H28.766L30.9155 45.7571L18.9845 56.8927V54.3628C18.9844 54.156 18.9162 53.955 18.7905 53.7909L9.85761 42.1784Z" fill="#0439AB"></path><path fill-rule="evenodd" clip-rule="evenodd" d="M58.8521 52.9533C58.4213 52.0927 57.709 51.4061 56.8333 51.0069C56.1805 50.7234 55.7771 50.6416 54.971 50.6236C54.1373 50.6414 53.3277 50.907 52.6453 51.3864C51.963 51.8659 51.4388 52.5376 51.1394 53.3159C50.8401 54.0943 50.7791 54.9441 50.9643 55.7572C51.1495 56.5704 51.5725 57.31 52.1794 57.8819C52.7128 58.3614 53.1047 58.5478 53.8209 58.8375C54.2266 58.9726 54.6506 59.0443 55.0781 59.0502C56.0405 59.0521 56.9745 58.7242 57.7247 58.1213C58.4748 57.5184 58.9958 56.6767 59.201 55.7364C59.4061 54.7961 59.283 53.8139 58.8521 52.9533ZM53.7764 56.7803C54.1618 57.0379 54.6149 57.1753 55.0785 57.1753C55.6999 57.1747 56.2956 56.9275 56.735 56.4881C57.1744 56.0487 57.4216 55.453 57.4222 54.8316C57.4222 54.368 57.2848 53.9149 57.0272 53.5294C56.7697 53.144 56.4037 52.8436 55.9754 52.6662C55.5471 52.4888 55.0759 52.4424 54.6212 52.5329C54.1666 52.6233 53.749 52.8465 53.4212 53.1743C53.0934 53.5021 52.8702 53.9197 52.7798 54.3743C52.6893 54.829 52.7357 55.3002 52.9131 55.7285C53.0905 56.1567 53.3909 56.5228 53.7764 56.7803Z" fill="#FFC000"></path><path fill-rule="evenodd" clip-rule="evenodd" d="M12.3119 14.9879L11.6055 20.639L11.0853 24.8006L10.5396 29.1667C10.5112 29.3934 10.4011 29.602 10.2298 29.7532C10.0585 29.9044 9.83787 29.9879 9.60938 29.9879H7.77731L5.84944 29.9861C5.62288 29.9839 5.40481 29.8997 5.23561 29.749C5.0664 29.5984 4.95754 29.3915 4.92919 29.1667L4.09003 22.4512C3.16526 22.3631 2.30632 21.9342 1.6803 21.2479C1.05429 20.5615 0.705972 19.6669 0.703125 18.7379V16.8629C0.704764 16.0761 0.956007 15.3102 1.42069 14.6753C1.26246 14.5055 1.17368 14.2825 1.17188 14.0504V10.3004C1.17188 10.0518 1.27065 9.81333 1.44646 9.63752C1.62228 9.4617 1.86073 9.36293 2.10938 9.36293H4.15809C3.64608 8.63383 3.37213 7.7642 3.37381 6.87327C3.37548 5.98235 3.65271 5.11375 4.16747 4.38659L6.96628 0.388054C7.05713 0.270904 7.17358 0.176087 7.30671 0.110859C7.43984 0.0456302 7.58612 0.0117188 7.73438 0.0117188C7.88263 0.0117188 8.02891 0.0456302 8.16204 0.110859C8.29517 0.176087 8.41162 0.270904 8.50247 0.388054L11.3013 4.38734C11.7594 5.03908 12.0293 5.80433 12.0815 6.59927C12.1336 7.39421 11.966 8.18816 11.597 8.89418C11.5114 9.05626 11.4157 9.21282 11.3106 9.36293H13.3594C13.608 9.36293 13.8465 9.4617 14.0223 9.63752C14.1981 9.81333 14.2969 10.0518 14.2969 10.3004V14.0504C14.2969 14.2991 14.1981 14.5375 14.0223 14.7133C13.8465 14.8892 13.608 14.9879 13.3594 14.9879H12.3119ZM8.78175 28.1129H6.687L5.94487 22.1746C6.61492 21.8837 7.1855 21.4036 7.58664 20.7931C7.98778 20.1827 8.20203 19.4684 8.20312 18.7379V16.8629C8.19932 16.2026 8.01927 15.5553 7.68159 14.9879H10.4224L8.78175 28.1129ZM2.57812 16.8629V18.7379C2.57812 19.2352 2.77567 19.7121 3.1273 20.0638C3.47893 20.4154 3.95584 20.6129 4.45312 20.6129C4.95041 20.6129 5.42732 20.4154 5.77895 20.0638C6.13058 19.7121 6.32812 19.2352 6.32812 18.7379V16.8629C6.32812 16.3657 6.13058 15.8887 5.77895 15.5371C5.42732 15.1855 4.95041 14.9879 4.45312 14.9879C3.95584 14.9879 3.47893 15.1855 3.1273 15.5371C2.77567 15.8887 2.57812 16.3657 2.57812 16.8629ZM12.4219 11.2379V13.1129H3.04688V11.2379H12.4219ZM5.25399 6.7212C5.22418 7.17469 5.3216 7.62749 5.53528 8.02859C5.69192 8.3294 5.90862 8.59488 6.17198 8.80858C6.43533 9.02229 6.73974 9.17968 7.06636 9.27102C7.39299 9.36236 7.73488 9.38571 8.07089 9.33962C8.4069 9.29353 8.72988 9.17897 9.01984 9.00305C9.3098 8.82713 9.56058 8.59358 9.75665 8.31685C9.95273 8.04012 10.0899 7.72609 10.1598 7.39421C10.2296 7.06232 10.2306 6.71963 10.1627 6.38735C10.0948 6.05506 9.95946 5.74024 9.765 5.46237L7.73438 2.56052L5.70403 5.4619C5.43968 5.83157 5.28381 6.26771 5.25399 6.7212Z" fill="#FFC000"></path></svg>